<?xml version="1.0" standalone="no"?><!DOCTYPE svg PUBLIC "-//W3C//DTD SVG 1.1//EN" "http://www.w3.org/Graphics/SVG/1.1/DTD/svg11.dtd"><svg t="1599489901851" class="icon" viewBox="0 0 1371 1024" version="1.1" xmlns="http://www.w3.org/2000/svg" p-id="2352" xmlns:xlink="http://www.w3.org/1999/xlink" width="267.7734375" height="200"><defs><style type="text/css"></style></defs><path d="M433.53694399 511.837494C605.66373899 636.968674 774.79081399 759.814353 943.91788799 882.802876c14.855757 10.713286 29.568669 21.569416 44.281582 32.56839 29.140138 21.71226 55.137712 57.423213 23.854917 93.134166-14.570069 16.712726-42.424612 25.85473-86.991882-4.142471C708.22559699 857.948053 498.53087899 701.534077 286.40781699 548.548354c-46.995614-33.853984-21.997947-61.279996 12.284568-84.706381 109.989736-75.421533 220.408003-150.414535 330.683427-225.550381 101.561951-69.136406 203.123902-138.558499 305.114385-207.409217 32.996921-22.283635 73.564564-49.995335 107.132859-12.284568 33.425452 37.567923-10.427598 80.421067-42.853144 102.561858-176.840641 121.417241-354.3955 241.977419-531.521828 362.966129-10.570442 7.142191-19.712446 16.141351-33.71114 27.7117z" p-id="2353"></path></svg>